<?xml version="1.0" encoding="utf-8"?>
<!-- Generator: Adobe Illustrator 24.2.3, SVG Export Plug-In . SVG Version: 6.00 Build 0)  -->
<svg version="1.1" id="Layer_1" xmlns="http://www.w3.org/2000/svg" xmlns:xlink="http://www.w3.org/1999/xlink" x="0px" y="0px"
	 viewBox="0 0 280.63 154.92" style="enable-background:new 0 0 280.63 154.92;" xml:space="preserve">
<style type="text/css">
	.st0{fill:#FFFFFF;}
	.st1{fill:none;}
	.st2{fill:#FFB10C;}
</style>
<g>
	<g>
		<path class="st0" d="M7.93,153.01c0.21,0.21,0.31,0.45,0.31,0.72c0,0.3-0.1,0.54-0.31,0.73c-0.21,0.19-0.46,0.28-0.77,0.28H1.2
			c-0.31,0-0.56-0.1-0.77-0.31c-0.21-0.21-0.31-0.46-0.31-0.77v-10.27c0-0.31,0.1-0.57,0.31-0.77c0.21-0.21,0.47-0.31,0.77-0.31
			h5.95c0.31,0,0.57,0.1,0.77,0.29c0.21,0.2,0.31,0.45,0.31,0.76c0,0.3-0.1,0.54-0.3,0.72c-0.2,0.18-0.46,0.27-0.78,0.27H2.34v3.02
			h4.02c0.31,0,0.57,0.1,0.77,0.29c0.21,0.2,0.31,0.45,0.31,0.76c0,0.3-0.1,0.54-0.3,0.72c-0.2,0.18-0.46,0.27-0.78,0.27H2.34v3.29
			h4.82C7.46,152.7,7.72,152.8,7.93,153.01z M3.7,141.45c-0.14-0.12-0.2-0.27-0.2-0.46c0-0.17,0.08-0.33,0.25-0.48l1.53-1.35
			c0.31-0.26,0.6-0.39,0.87-0.39c0.23,0,0.44,0.08,0.64,0.25s0.3,0.37,0.3,0.62c0,0.18-0.06,0.35-0.17,0.52
			c-0.11,0.17-0.27,0.31-0.49,0.42l-1.78,0.94c-0.12,0.07-0.25,0.11-0.41,0.11C4.02,141.63,3.84,141.57,3.7,141.45z"/>
		<path class="st0" d="M25.07,153.37c0.09,0.15,0.13,0.31,0.13,0.48c0,0.21-0.07,0.41-0.21,0.59c-0.18,0.21-0.45,0.32-0.82,0.32
			c-0.28,0-0.54-0.06-0.78-0.19c-0.85-0.49-1.28-1.47-1.28-2.97c0-0.43-0.14-0.76-0.42-1.01c-0.28-0.25-0.68-0.37-1.2-0.37h-3.32
			v3.45c0,0.32-0.09,0.58-0.26,0.78c-0.17,0.2-0.4,0.3-0.68,0.3c-0.34,0-0.64-0.1-0.9-0.31c-0.25-0.21-0.38-0.46-0.38-0.77v-10.27
			c0-0.31,0.1-0.57,0.31-0.77c0.21-0.21,0.47-0.31,0.77-0.31h5.12c0.62,0,1.2,0.17,1.74,0.5c0.54,0.33,0.98,0.79,1.31,1.37
			c0.33,0.58,0.49,1.23,0.49,1.96c0,0.59-0.16,1.17-0.48,1.73c-0.32,0.56-0.73,1.01-1.24,1.34c0.75,0.52,1.15,1.22,1.23,2.1
			c0.03,0.19,0.05,0.37,0.05,0.55c0.05,0.37,0.09,0.63,0.14,0.79c0.05,0.16,0.15,0.28,0.32,0.36
			C24.85,153.1,24.98,153.22,25.07,153.37z M21.68,148.08c0.2-0.2,0.37-0.47,0.5-0.81c0.13-0.34,0.2-0.7,0.2-1.09
			c0-0.33-0.07-0.64-0.2-0.92c-0.13-0.28-0.3-0.5-0.5-0.67c-0.2-0.17-0.41-0.25-0.62-0.25h-3.89v4.03h3.89
			C21.27,148.38,21.48,148.28,21.68,148.08z"/>
		<path class="st0" d="M39.71,153.01c0.21,0.21,0.31,0.45,0.31,0.72c0,0.3-0.1,0.54-0.31,0.73c-0.21,0.19-0.46,0.28-0.77,0.28h-5.95
			c-0.31,0-0.56-0.1-0.77-0.31c-0.21-0.21-0.31-0.46-0.31-0.77v-10.27c0-0.31,0.1-0.57,0.31-0.77c0.21-0.21,0.47-0.31,0.77-0.31
			h5.95c0.31,0,0.57,0.1,0.77,0.29c0.21,0.2,0.31,0.45,0.31,0.76c0,0.3-0.1,0.54-0.3,0.72c-0.2,0.18-0.46,0.27-0.78,0.27h-4.82v3.02
			h4.02c0.31,0,0.57,0.1,0.77,0.29c0.21,0.2,0.31,0.45,0.31,0.76c0,0.3-0.1,0.54-0.3,0.72c-0.2,0.18-0.46,0.27-0.78,0.27h-4.02v3.29
			h4.82C39.25,152.7,39.5,152.8,39.71,153.01z"/>
		<path class="st0" d="M56.12,144.03l-6.75,8.67h5.67c0.32,0,0.58,0.09,0.78,0.27c0.2,0.18,0.3,0.43,0.3,0.74
			c0,0.3-0.1,0.54-0.31,0.74c-0.21,0.2-0.46,0.29-0.77,0.29h-7.8c-0.31,0-0.58-0.11-0.8-0.32c-0.23-0.21-0.34-0.46-0.34-0.73
			c0-0.23,0.08-0.45,0.25-0.68l6.73-8.67h-5.14c-0.32,0-0.58-0.09-0.78-0.28c-0.2-0.19-0.3-0.44-0.3-0.75c0-0.29,0.1-0.54,0.31-0.73
			c0.21-0.19,0.46-0.28,0.77-0.28h7.27c0.28,0,0.55,0.1,0.79,0.3c0.24,0.2,0.36,0.45,0.36,0.75
			C56.37,143.58,56.29,143.8,56.12,144.03z"/>
		<path class="st0" d="M70.98,143.13c0.8,0.55,1.41,1.3,1.83,2.24c0.42,0.94,0.63,1.99,0.63,3.15c0,1.16-0.21,2.21-0.63,3.15
			c-0.42,0.94-1.03,1.69-1.83,2.24c-0.8,0.55-1.76,0.83-2.87,0.83h-4.25c-0.31,0-0.56-0.1-0.77-0.31c-0.21-0.21-0.31-0.46-0.31-0.77
			v-10.27c0-0.31,0.1-0.57,0.31-0.77c0.21-0.21,0.47-0.31,0.77-0.31h4.25C69.22,142.31,70.18,142.58,70.98,143.13z M70.33,151.52
			c0.53-0.79,0.8-1.79,0.8-2.99s-0.27-2.21-0.81-2.99c-0.54-0.79-1.33-1.18-2.39-1.18H65v8.35h2.93
			C69,152.7,69.8,152.3,70.33,151.52z"/>
		<path class="st0" d="M101.47,142.6c0.22,0.21,0.33,0.47,0.33,0.77v10.29c0,0.31-0.1,0.57-0.3,0.77s-0.47,0.31-0.8,0.31
			c-0.33,0-0.6-0.1-0.81-0.3c-0.21-0.2-0.31-0.46-0.31-0.78v-7.16l-2.93,4.48c-0.12,0.14-0.25,0.26-0.41,0.35
			c-0.15,0.09-0.31,0.13-0.48,0.12c-0.15,0.01-0.31-0.03-0.46-0.12c-0.15-0.09-0.29-0.2-0.41-0.35l-2.93-4.64v7.32
			c0,0.32-0.09,0.58-0.28,0.78c-0.19,0.2-0.44,0.3-0.75,0.3c-0.3,0-0.54-0.1-0.73-0.31s-0.28-0.46-0.28-0.77v-10.29
			c0-0.29,0.11-0.55,0.33-0.76c0.22-0.21,0.48-0.32,0.79-0.32c0.18,0,0.36,0.05,0.53,0.13c0.18,0.09,0.31,0.2,0.41,0.35l3.87,5.95
			l3.98-5.95c0.09-0.14,0.22-0.26,0.38-0.35c0.16-0.09,0.32-0.13,0.49-0.13C100.99,142.29,101.25,142.39,101.47,142.6z"/>
		<path class="st0" d="M118.97,153.78c0,0.31-0.1,0.56-0.3,0.76c-0.2,0.19-0.43,0.29-0.69,0.29c-0.21,0-0.41-0.07-0.58-0.2
			c-0.17-0.13-0.3-0.31-0.4-0.53l-0.92-2.15h-5.29l-0.92,2.17c-0.08,0.23-0.21,0.4-0.38,0.52c-0.17,0.12-0.36,0.19-0.56,0.19
			c-0.31,0-0.54-0.08-0.7-0.25s-0.24-0.39-0.24-0.68c0-0.11,0.02-0.22,0.05-0.34l4.42-10.62c0.09-0.24,0.24-0.42,0.43-0.55
			c0.19-0.13,0.4-0.18,0.64-0.16c0.21,0,0.41,0.06,0.6,0.19c0.18,0.12,0.32,0.3,0.4,0.52l4.37,10.41
			C118.94,153.51,118.97,153.65,118.97,153.78z M111.65,149.91h3.55l-1.79-4.16L111.65,149.91z"/>
		<path class="st0" d="M134.68,148.34c0.2,0.21,0.3,0.46,0.3,0.77v3.77c0,0.42-0.18,0.74-0.55,0.96c-1.16,0.72-2.43,1.08-3.82,1.08
			c-1.17,0-2.26-0.29-3.25-0.86c-0.99-0.57-1.78-1.35-2.36-2.33c-0.58-0.98-0.87-2.05-0.87-3.21c0-1.16,0.29-2.23,0.87-3.21
			c0.58-0.98,1.37-1.75,2.36-2.33c1-0.57,2.08-0.86,3.25-0.86c1.17,0,2.19,0.24,3.06,0.71c0.18,0.09,0.31,0.22,0.4,0.37
			c0.09,0.15,0.13,0.32,0.13,0.5c0,0.3-0.1,0.55-0.29,0.77c-0.2,0.22-0.44,0.33-0.72,0.33c-0.18,0-0.37-0.05-0.59-0.14
			c-0.64-0.27-1.3-0.41-1.99-0.41c-0.76,0-1.46,0.19-2.1,0.58c-0.64,0.38-1.15,0.9-1.52,1.55c-0.37,0.65-0.56,1.36-0.56,2.13
			s0.19,1.48,0.56,2.13c0.37,0.65,0.88,1.17,1.52,1.55c0.64,0.39,1.34,0.58,2.1,0.58c0.33,0,0.69-0.03,1.07-0.09
			c0.38-0.06,0.71-0.14,1-0.23v-2.31H131c-0.31,0-0.57-0.1-0.77-0.3c-0.21-0.2-0.31-0.46-0.31-0.76c0-0.31,0.1-0.56,0.31-0.76
			c0.21-0.2,0.46-0.3,0.77-0.3h2.91C134.23,148.03,134.48,148.13,134.68,148.34z"/>
		<path class="st0" d="M151.85,153.78c0,0.31-0.1,0.56-0.3,0.76c-0.2,0.19-0.43,0.29-0.69,0.29c-0.21,0-0.41-0.07-0.58-0.2
			c-0.17-0.13-0.3-0.31-0.4-0.53l-0.92-2.15h-5.29l-0.92,2.17c-0.08,0.23-0.21,0.4-0.38,0.52c-0.17,0.12-0.36,0.19-0.56,0.19
			c-0.31,0-0.54-0.08-0.7-0.25c-0.16-0.17-0.24-0.39-0.24-0.68c0-0.11,0.02-0.22,0.05-0.34l4.42-10.62
			c0.09-0.24,0.24-0.42,0.43-0.55c0.19-0.13,0.4-0.18,0.64-0.16c0.21,0,0.41,0.06,0.6,0.19c0.18,0.12,0.32,0.3,0.4,0.52l4.37,10.41
			C151.82,153.51,151.85,153.65,151.85,153.78z M144.53,149.91h3.55l-1.79-4.16L144.53,149.91z"/>
		<path class="st0" d="M166.22,143.13c0.8,0.55,1.41,1.3,1.83,2.24c0.42,0.94,0.63,1.99,0.63,3.15c0,1.16-0.21,2.21-0.63,3.15
			c-0.42,0.94-1.03,1.69-1.83,2.24s-1.76,0.83-2.87,0.83h-4.25c-0.31,0-0.56-0.1-0.77-0.31c-0.21-0.21-0.31-0.46-0.31-0.77v-10.27
			c0-0.31,0.1-0.57,0.31-0.77c0.21-0.21,0.47-0.31,0.77-0.31h4.25C164.47,142.31,165.42,142.58,166.22,143.13z M165.57,151.52
			c0.53-0.79,0.8-1.79,0.8-2.99s-0.27-2.21-0.81-2.99c-0.54-0.79-1.33-1.18-2.39-1.18h-2.93v8.35h2.93
			C164.24,152.7,165.04,152.3,165.57,151.52z"/>
		<path class="st0" d="M195.81,151.75c-0.52,0.98-1.24,1.75-2.16,2.32s-1.95,0.85-3.1,0.85c-1.15,0-2.18-0.28-3.1-0.85
			s-1.63-1.34-2.15-2.32s-0.77-2.05-0.77-3.22c0-1.17,0.26-2.25,0.77-3.22s1.23-1.75,2.15-2.32s1.95-0.85,3.1-0.85
			c1.15,0,2.18,0.28,3.1,0.85s1.64,1.34,2.16,2.32c0.52,0.98,0.78,2.05,0.78,3.22C196.59,149.7,196.33,150.77,195.81,151.75z
			 M193.8,146.36c-0.32-0.64-0.76-1.16-1.33-1.54s-1.21-0.57-1.92-0.57c-0.72,0-1.37,0.19-1.93,0.56c-0.56,0.37-1,0.89-1.31,1.54
			s-0.47,1.37-0.47,2.17c0,0.79,0.16,1.52,0.47,2.17s0.75,1.16,1.31,1.54c0.56,0.37,1.21,0.56,1.93,0.56c0.71,0,1.35-0.19,1.92-0.57
			c0.57-0.38,1.01-0.89,1.33-1.54c0.32-0.64,0.48-1.37,0.48-2.16C194.28,147.73,194.12,147.01,193.8,146.36z"/>
		<path class="st0" d="M211.58,142.59c0.2,0.19,0.3,0.44,0.3,0.75c0,0.31-0.1,0.55-0.3,0.74c-0.2,0.18-0.46,0.27-0.78,0.27h-2.79
			v9.31c0,0.31-0.11,0.57-0.34,0.77c-0.23,0.21-0.5,0.31-0.84,0.31c-0.33,0-0.6-0.1-0.82-0.31s-0.32-0.46-0.32-0.77v-9.31h-2.79
			c-0.32,0-0.58-0.09-0.78-0.28c-0.2-0.19-0.3-0.44-0.3-0.75c0-0.29,0.1-0.54,0.31-0.73c0.21-0.19,0.47-0.28,0.77-0.28h7.89
			C211.12,142.31,211.38,142.4,211.58,142.59z"/>
		<path class="st0" d="M227.59,142.59c0.2,0.19,0.3,0.44,0.3,0.75c0,0.31-0.1,0.55-0.3,0.74c-0.2,0.18-0.46,0.27-0.78,0.27h-2.79
			v9.31c0,0.31-0.11,0.57-0.34,0.77c-0.23,0.21-0.5,0.31-0.84,0.31c-0.33,0-0.6-0.1-0.82-0.31s-0.32-0.46-0.32-0.77v-9.31h-2.79
			c-0.32,0-0.58-0.09-0.78-0.28c-0.2-0.19-0.3-0.44-0.3-0.75c0-0.29,0.1-0.54,0.31-0.73c0.21-0.19,0.47-0.28,0.77-0.28h7.89
			C227.13,142.31,227.39,142.4,227.59,142.59z"/>
		<path class="st0" d="M244.05,142.61c0.2,0.2,0.3,0.46,0.3,0.78v10.27c0,0.31-0.11,0.57-0.32,0.77c-0.21,0.21-0.49,0.31-0.82,0.31
			c-0.3,0-0.55-0.1-0.76-0.31c-0.21-0.21-0.32-0.46-0.32-0.77v-4.14h-5.67v4.14c0,0.31-0.11,0.57-0.34,0.77
			c-0.22,0.21-0.49,0.31-0.78,0.31c-0.32,0-0.58-0.1-0.79-0.31c-0.21-0.21-0.31-0.46-0.31-0.77v-10.27c0-0.31,0.11-0.57,0.32-0.77
			c0.21-0.21,0.49-0.31,0.82-0.31c0.3,0,0.55,0.1,0.76,0.31c0.21,0.21,0.32,0.46,0.32,0.77v4.09h5.67v-4.09
			c0-0.31,0.11-0.57,0.34-0.77c0.22-0.21,0.49-0.31,0.78-0.31C243.59,142.31,243.85,142.41,244.05,142.61z"/>
		<path class="st0" d="M262.43,151.75c-0.52,0.98-1.24,1.75-2.16,2.32c-0.92,0.57-1.95,0.85-3.1,0.85c-1.15,0-2.18-0.28-3.1-0.85
			s-1.63-1.34-2.15-2.32s-0.77-2.05-0.77-3.22c0-1.17,0.26-2.25,0.77-3.22s1.23-1.75,2.15-2.32s1.95-0.85,3.1-0.85
			c1.15,0,2.18,0.28,3.1,0.85c0.92,0.57,1.64,1.34,2.16,2.32c0.52,0.98,0.78,2.05,0.78,3.22
			C263.21,149.7,262.95,150.77,262.43,151.75z M260.42,146.36c-0.32-0.64-0.76-1.16-1.33-1.54s-1.21-0.57-1.92-0.57
			c-0.72,0-1.37,0.19-1.93,0.56c-0.56,0.37-1,0.89-1.31,1.54s-0.47,1.37-0.47,2.17c0,0.79,0.16,1.52,0.47,2.17s0.75,1.16,1.31,1.54
			c0.56,0.37,1.21,0.56,1.93,0.56c0.71,0,1.35-0.19,1.92-0.57c0.57-0.38,1.01-0.89,1.33-1.54c0.32-0.64,0.48-1.37,0.48-2.16
			C260.9,147.73,260.74,147.01,260.42,146.36z"/>
		<path class="st0" d="M280.13,142.59c0.18,0.19,0.27,0.43,0.27,0.71v10.36c0,0.31-0.1,0.57-0.31,0.77s-0.46,0.31-0.77,0.31
			c-0.17,0-0.33-0.03-0.49-0.08c-0.16-0.05-0.28-0.13-0.35-0.22l-6.52-8.28v7.59c0,0.28-0.09,0.52-0.28,0.71
			c-0.18,0.19-0.42,0.28-0.72,0.28c-0.28,0-0.52-0.09-0.69-0.28c-0.18-0.19-0.27-0.43-0.27-0.71v-10.36c0-0.31,0.1-0.57,0.31-0.77
			c0.21-0.21,0.47-0.31,0.77-0.31c0.18,0,0.35,0.03,0.52,0.11c0.17,0.07,0.3,0.17,0.38,0.28l6.47,8.24v-7.64
			c0-0.28,0.09-0.52,0.27-0.71c0.18-0.19,0.42-0.28,0.7-0.28C279.72,142.31,279.95,142.4,280.13,142.59z"/>
	</g>
	<g>
		<path class="st0" d="M87.84,0H58.27c-0.94,0-1.71,0.76-1.71,1.71v44.08L32.78,0.91C32.48,0.35,31.9,0,31.27,0H1.71
			C0.76,0,0,0.76,0,1.71v114.08c0,0.94,0.76,1.71,1.71,1.71h29.57c0.45,0,0.89-0.18,1.21-0.5c0.32-0.32,0.5-0.75,0.5-1.21l0-44.08
			l23.79,44.88c0.3,0.56,0.88,0.91,1.51,0.91h29.57c0.94,0,1.71-0.76,1.71-1.71V1.71C89.55,0.76,88.78,0,87.84,0z"/>
		<g>
			<path class="st1" d="M235.69,32.7c-0.94,0-1.71,0.76-1.71,1.71v48.45c0,0.94,0.76,1.71,1.71,1.71h10.32
				c0.94,0,1.71-0.76,1.71-1.71V34.4c0-0.94-0.76-1.71-1.71-1.71H235.69z"/>
			<path class="st0" d="M278.92,0h-39.15c-0.63,0-1.21,0.35-1.51,0.91l-37.15,70.24c-0.13,0.25-0.2,0.52-0.2,0.8v43.84
				c0,0.94,0.76,1.71,1.71,1.71h76.3c0.94,0,1.71-0.76,1.71-1.71V1.71C280.63,0.76,279.87,0,278.92,0z M247.72,34.4v48.45
				c0,0.94-0.76,1.71-1.71,1.71h-10.32c-0.94,0-1.71-0.76-1.71-1.71V34.4c0-0.94,0.76-1.71,1.71-1.71h10.32
				C246.95,32.7,247.72,33.46,247.72,34.4z"/>
		</g>
		<path class="st2" d="M232.33,0.83c-0.11-0.19-0.29-0.29-0.46-0.41c-0.3-0.24-0.64-0.41-1.04-0.41h-33.39
			c-0.63,0-1.21,0.35-1.51,0.91l-23.66,44.85V26.6c0-0.94-0.76-1.71-1.71-1.71h-29.56c-0.94,0-1.71,0.76-1.71,1.71v89.19
			c0,0.94,0.76,1.71,1.71,1.71h29.49c0.01,0,0.02-0.01,0.04-0.01c0.01,0,0.03,0.01,0.04,0.01c0.63,0,1.21-0.35,1.51-0.91L205,54.34
			l14.78-27.95l12.63-23.88C232.7,1.98,232.64,1.34,232.33,0.83z"/>
		<path class="st0" d="M129.38,0H99.82c-0.94,0-1.71,0.76-1.71,1.71v114.08c0,0.94,0.76,1.71,1.71,1.71h29.56
			c0.94,0,1.71-0.76,1.71-1.71V1.71C131.09,0.76,130.32,0,129.38,0z"/>
	</g>
</g>
</svg>
